{"accessors" : [{"bufferView" : 0, "byteOffset" : 0, "componentType" : 5123, "count" : 196608, "type" : "SCALAR", "max" : [32563], "min" : [0]}, {"bufferView" : 1, "byteOffset" : 0, "componentType" : 5126, "count" : 32564, "type" : "VEC3", "max" : [1.2890857458114624, 1.3299188613891602, 1.3304499387741089], "min" : [-1.2679638862609863, -1.295125961303711, -1.2606334686279297], "name" : "POSITION"}, {"bufferView" : 1, "byteOffset" : 12, "componentType" : 5126, "count" : 32564, "type" : "VEC3", "max" : [0.9999986886978149, 0.9998778104782104, 0.9999926686286926], "min" : [-0.9997619390487671, -0.9999094009399414, -0.9999421834945679], "name" : "NORMAL"}, {"bufferView" : 0, "byteOffset" : 393216, "componentType" : 5123, "count" : 3840, "type" : "SCALAR", "max" : [728], "min" : [0]}, {"bufferView" : 2, "byteOffset" : 0, "componentType" : 5126, "count" : 729, "type" : "VEC3", "max" : [1, 0.9999999403953552, 1], "min" : [-0.9999999403953552, -0.9999999403953552, -1], "name" : "POSITION"}, {"bufferView" : 2, "byteOffset" : 12, "componentType" : 5126, "count" : 729, "type" : "VEC3", "max" : [1.0000014305114746, 1.0000044107437134, 1.0000044107437134], "min" : [-1.0000014305114746, -1.0000044107437134, -1.0000044107437134], "name" : "NORMAL"}, {"bufferView" : 2, "byteOffset" : 24, "componentType" : 5126, "count" : 729, "type" : "VEC2", "max" : [1, 1], "min" : [0, 0.5276179909706116], "name" : "TEXCOORD_0"}], "asset" : {"generator" : "Aspose.3D 24.9.1", "version" : "2.0"}, "buffers" : [{"uri" : "data:application/octet-stream;base64,", "byteLength" : 1205772}], "bufferViews" : [{"buffer" : 0, "byteOffset" : 0, "byteLength" : 400896, "target" : 34963}, {"buffer" : 0, "byteOffset" : 400900, "byteLength" : 781536, "byteStride" : 24, "target" : 34962}, {"buffer" : 0, "byteOffset" : 1182440, "byteLength" : 23328, "byteStride" : 32, "target" : 34962}], "cameras" : [{"perspective" : {"aspectRatio" : 1.5, "yfov" : 0.6435011029243469, "zfar" : 100000, "znear" : 10.000000149011612}, "type" : "perspective", "name" : "Camera"}], "materials" : [{"name" : "Material.003", "pbrMetallicRoughness" : {"baseColorFactor" : [0.800000011920929, 0.800000011920929, 0.800000011920929, 1], "metallicFactor" : 1, "roughnessFactor" : 1}, "emissiveFactor" : [1, 1, 1], "alphaMode" : "OPAQUE", "doubleSided" : false}], "meshes" : [{"primitives" : [{"attributes" : {"POSITION" : 1, "NORMAL" : 2}, "indices" : 0, "material" : 0, "mode" : 4}], "name" : "Plane.003"}, {"primitives" : [{"attributes" : {"POSITION" : 4, "NORMAL" : 5, "TEXCOORD_0" : 6}, "indices" : 3, "mode" : 4}], "name" : "Icosphere"}], "nodes" : [{"matrix" : [84.37715911865234, 0, 0, 0, 0, 6.370298283363148E-06, -84.3771591186521, 0, 0, 84.3771591186521, 6.370298283363148E-06, 0, 0, 119.77529907226562, 1.0706305503845215, 1], "mesh" : 0, "name" : "Plane"}, {"matrix" : [69.47290802001953, 0, 0, 0, 0, -1.131857338511984E-05, -69.47290802001861, 0, 0, 69.47290802001861, -1.131857338511984E-05, 0, 0, 119.77529907226562, 1.0706305503845215, 1], "mesh" : 1, "name" : "Icosphere"}, {"camera" : 0, "matrix" : [99.99999999999919, 4.37113882867376E-06, 1.1920928955078098E-05, 0, -4.371138828673768E-06, 99.9999999999999, -1.9106856769229284E-13, 0, -1.1920928955078093E-05, -3.300117866017416E-13, 99.99999999999929, 0, -1029.300048828125, 119.1939926147461, -12.659156799316406, 1], "name" : "Camera"}], "scene" : 0, "scenes" : [{"nodes" : [0, 1, 2]}]}